<svg id="圖層_1" data-name="圖層 1" xmlns="http://www.w3.org/2000/svg" xmlns:xlink="http://www.w3.org/1999/xlink" viewBox="0 0 359 359"><defs><style>.cls-1{fill:none;}.cls-2{fill:#18305d;}.cls-3{clip-path:url(#clip-path);}.cls-4{clip-path:url(#clip-path-2);}.cls-5{clip-path:url(#clip-path-3);}</style><clipPath id="clip-path"><rect class="cls-1" x="106.63" y="291" width="185" height="42.78"/></clipPath><clipPath id="clip-path-2"><rect class="cls-1" x="97.63" y="59" width="235.73" height="66"/></clipPath><clipPath id="clip-path-3"><rect class="cls-1" x="141.63" y="25.22" width="165" height="45.78"/></clipPath></defs><title>工作區域 1</title><path class="cls-2" d="M124.36,96.12c-5.89,11.78-6.87,26.84-8.51,40.27-2,17-3.6,34.37-5.24,51.39-3.27,33.39-10.8,71-5.23,104.43,1,5.57,9.16,4.91,10.8,0,8.51-30.77,6.22-66.13,8.51-97.88,1.31-17,3-34.37,4.58-51.4,1.31-14.73,4.59-31.42,1.31-45.83C129.93,94.16,125.67,93.5,124.36,96.12Z"/><g class="cls-3"><path class="cls-2" d="M108,296.47c23.58,21.93,54,30.77,85.12,35,28.81,3.93,66.78,3.93,93.62-9.16,8.51-4.26,3.93-17-4.58-17-14.4,0-28.48,3.59-42.88,4.91s-28.81,1-43.22.65c-29.46-1-57.61-9.82-85.44-19A2.75,2.75,0,0,0,108,296.47Z"/></g><path class="cls-2" d="M291,318.07c20.62-27.5,20.62-66.78,24.55-99.84,2.29-19,3.28-38.31,4.91-57.29S327,120.67,322.74,102c-1-4.91-8.51-6.21-10.8-1.3-6.87,14.4-6.87,31.75-8.84,47.46-2.62,19-4.91,38.3-7.53,57.29-4.58,36.66-8.51,73.65-12.76,110.32C282.48,320.69,289,321,291,318.07Z"/><g class="cls-4"><path class="cls-2" d="M131.89,59.13c-12.77,2.29-22.26,8.51-31.75,17-4.26,3.93-2.62,10.15,1.64,13.1,16.69,11.78,36,19.64,53,4.58-4.26-.66-8.19-1-12.44-1.64,14.4,21.94,45.18,28.81,63.18,7.2-4.26-1-8.51-2.29-12.77-3.27,7.53,28.16,40.59,33.39,57.29,10.15H236c16,23.24,47.8,25.53,63.84,1.31-4.91-.66-10.15-1.31-15.06-2,7.2,17.34,25.86,20.62,40.59,9.16,21-16.37-4.25-32.41-18.33-43.87-8.18-6.54-20.3,4.92-11.79,11.79C300.48,87,305.39,91.54,311,95.47c13.75,10.8-8.18,14.4-10.15,5.56-1.31-5.89-9.49-8.18-13.75-3.6-10.48,11.13-26.19,14.4-36.66.65-3.6-4.91-10.48-5.56-14.08,0-8.84,13.1-25.21,8.84-28.48-5.89-1.31-6.22-8.84-6.87-12.77-3.27-10.8,9.16-31.09,8.51-38.63-4.26-2-3.27-7.2-5.56-10.8-2.94-12.44,9.49-24.55.65-35-6.55,1,3.93,2,7.53,3,11.46,5.56-8.84,13.09-16,20.95-23.24C136.15,61.75,133.86,58.8,131.89,59.13Z"/></g><path class="cls-2" d="M148.26,59.46C165,76.48,195.4,81.72,218,86c21.93,3.93,54,10.48,74.31.66,7.53-3.6,4.25-13.42-2-16C279.86,66.33,268.73,68,257.6,68a340.39,340.39,0,0,1-36.34-3.28c-22.59-2.94-48.12-12.11-70.71-9.82C147.93,55.2,146.62,57.49,148.26,59.46Z"/><g class="cls-5"><path class="cls-2" d="M147.6,51.6c4.26-15.06,28.16-8.84,38.63-7.86C201,45.38,215.37,46,230.1,47c24.88,1.63,45.18,5.89,65.14,21.6,5.9,4.59,13.1-1,9.83-7.53-13.1-29.46-54-30.77-81.19-32.4-19.64-1.32-88.71-15.06-81.19,23.24C143,54.54,147,54.22,147.6,51.6Z"/></g><path class="cls-2" d="M151.21,155.37c-3.93,14.41-9.82,30.78-8.52,45.84.33,6.21,8.19,6.87,10.48,1.3,5.57-14.07,4.91-31.42,5.24-46.48C158.74,152.1,152.51,151.44,151.21,155.37Z"/><path class="cls-2" d="M149.57,210.37C177.4,237.54,237,257.18,272,232.3a7.45,7.45,0,0,0-3.6-13.75c-19-2-38.3,2.62-57.29,1C191.8,217.9,171.5,211,153.5,204.15,149.57,202.84,147.28,208.08,149.57,210.37Z"/><path class="cls-2" d="M159.72,156c19,10.8,39.28,14.4,60.56,17,19.31,2.29,44.52,4.91,62.53-3.93,4.58-2.29,3.27-9.49-1.32-10.47-17.34-4.26-37.31-.66-55.32-1.64-21.6-1.31-42.88-6.55-64.49-8.51C157.75,148.17,156.44,154.06,159.72,156Z"/><path class="cls-2" d="M276.91,171.09c-5.89,18.33-14.4,38-14.73,57.28,0,9.5,12.77,10.48,15.72,2,6.22-18.33,4.58-39.61,5.23-58.6C283.46,168.14,277.9,167.49,276.91,171.09Z"/><path class="cls-2" d="M172.16,185.82c6.55,6.87,17,9.82,25.53,12.44a60.32,60.32,0,0,0,29.46,2.62c6.88-1,5.9-10.81,0-12.77a166.65,166.65,0,0,0-25.53-4.58c-8.84-1.31-17.68-5.24-26.52-5.24C171.5,178.61,169.87,183.2,172.16,185.82Z"/><path class="cls-2" d="M227.15,213.64c2.62,1,4.92,2.3,7.53,2.62,2.62.66,5.57.66,8.19,1,6.22.66,6.22-10.14,0-9.49-2.62.33-5.57.65-8.19,1s-5.23,1.64-7.53,2.62C226.17,212,226.17,213.31,227.15,213.64Z"/><path class="cls-2" d="M159.39,60.11c-9.16,13.42-15.38,28.81-24.55,42.23-11.46,17-31.1,28.15-48.12,39.28-6.23,3.93-.66,13.75,5.89,9.82,35.35-20.95,64.49-47.79,68.74-91C161.68,59.46,160.05,59.13,159.39,60.11Z"/><path class="cls-2" d="M99.81,138.35c8.51-9.49-2.62-20.3-12.76-21.61-8.84-1.3-18.66,3.93-26.52,7.21A224.6,224.6,0,0,0,29.1,138c-3.6,2-4.25,6.22-2.62,9.5,5.89,11.78,11.79,23.24,18,34.7,3.27,5.89,7.52,12.44,14.73,14.4,8.51,2.29,16-1.31,23.24-5.89a320.07,320.07,0,0,0,32.08-23.24,7.4,7.4,0,0,0,2-7.21c-2-7.2-3.61-14.07-6.88-20.62-2.94-6.22-11.13-1.64-10.15,4.26,1,6.22,2.62,12.11,2.62,18.33,1.31-2,2.29-4.26,3.6-6.22-12.44,6.87-23.57,15.71-35.35,23.24-10.8,7.2-27.5-32.41-31.43-39-1,3.28-1.64,6.55-2.62,9.5,9.5-5.89,54-34,58.6-12.77C95.23,139,98.17,139.66,99.81,138.35Z"/><path class="cls-2" d="M80.17,136.71a18.3,18.3,0,0,0-1.64,13.1c1.31,5.24,4.59,8.51,9.5,10.47,6.87,2.3,11.12-8.18,4.91-11.45a7.17,7.17,0,0,1-3.28-3.6A28,28,0,0,1,88,137.7C87.37,133.77,81.81,133.77,80.17,136.71Z"/><path class="cls-2" d="M138.11,233.29c-8.84,16.36-11.13,35-12.76,53.36-.66,8.18,13.42,8.18,12.76,0-1.31-17.68,1.31-35,2.95-52.71C141.39,232.3,139.09,232,138.11,233.29Z"/><path class="cls-2" d="M181.65,278.46c16,9.17,35.68,11.79,53.69,13.43,8.51.65,16.69,1.3,25.21,2.61,9.82,1.64,16.36,7.86,25.2,11.79,3.28,1.63,8.51-1,6.88-5.24-4.91-13.42-21.61-17.68-34.7-19.31-11.46-1.32-22.92-2-34.38-2.63-13.75-1-27.17-4.25-40.92-4.25C180.67,274.53,180,277.48,181.65,278.46Z"/></svg>